<?xml version="1.0" standalone="no"?>
<!DOCTYPE svg PUBLIC "-//W3C//DTD SVG 20010904//EN"
 "http://www.w3.org/TR/2001/REC-SVG-20010904/DTD/svg10.dtd">
<svg version="1.0" xmlns="http://www.w3.org/2000/svg"
 width="1024.000000pt" height="1024.000000pt" viewBox="0 0 1024.000000 1024.000000"
 preserveAspectRatio="xMidYMid meet">

<g transform="translate(0.000000,1024.000000) scale(0.100000,-0.100000)"
fill="#000000" stroke="none">
<path d="M0 5120 l0 -5120 5120 0 5120 0 0 5120 0 5120 -5120 0 -5120 0 0
-5120z m6300 2424 c169 -48 297 -130 422 -271 65 -74 104 -145 149 -273 l34
-95 0 -305 0 -305 -81 0 -82 0 0 260 c0 299 -10 370 -71 501 -75 160 -203 267
-394 330 -102 34 -122 38 -217 37 -150 -1 -244 -30 -425 -131 -55 -31 -174
-93 -265 -138 -91 -46 -185 -94 -210 -108 -25 -14 -99 -52 -165 -84 -181 -89
-727 -361 -750 -374 -11 -6 -101 -52 -200 -101 -99 -50 -214 -112 -256 -138
-99 -64 -148 -80 -241 -82 -61 -2 -81 2 -94 15 -16 16 -15 19 11 50 48 57 123
106 274 180 80 38 569 281 1086 538 545 272 970 477 1012 490 149 45 313 46
463 4z m-735 -869 c29 -28 32 -66 8 -87 -10 -8 -45 -25 -78 -38 -168 -65 -282
-143 -331 -226 -28 -47 -57 -67 -113 -78 l-33 -6 4 98 c3 87 7 103 38 161 33
62 75 102 144 138 49 26 208 62 274 63 54 0 66 -4 87 -25z m-3264 -619 c118
-30 201 -70 297 -143 107 -82 122 -103 122 -171 0 -36 -4 -52 -9 -43 -6 8 -16
11 -31 6 -19 -6 -22 -4 -17 9 4 9 5 16 3 16 -7 0 -121 -60 -132 -69 -8 -6 -23
2 -45 27 l-34 36 30 -19 30 -18 -30 32 c-93 99 -353 155 -538 116 -185 -39
-363 -212 -412 -400 -85 -329 166 -694 490 -713 115 -6 206 17 325 85 4 2 4
-234 0 -287 0 -3 -8 -6 -17 -6 -10 -1 -53 -8 -95 -17 -183 -40 -375 -4 -564
104 -92 53 -249 211 -290 292 -72 142 -100 299 -83 474 20 209 87 365 215 498
108 111 268 188 459 219 67 10 232 -4 326 -28z m1534 10 c105 -23 258 -103
338 -176 65 -60 127 -137 127 -159 0 -19 -38 -32 -57 -20 -14 8 -30 5 -73 -15
-60 -28 -48 -35 20 -11 58 20 63 12 7 -10 -74 -28 -118 -22 -172 23 -23 19
-32 30 -20 27 l20 -7 -20 17 c-38 32 -182 95 -256 111 -54 11 -99 14 -168 9
-264 -18 -437 -152 -526 -407 -24 -71 -20 -202 11 -300 38 -119 66 -169 139
-246 123 -130 312 -200 469 -171 66 11 208 69 238 96 17 16 18 11 18 -145 0
-136 -2 -161 -14 -156 -8 3 -68 -2 -132 -11 -227 -33 -425 -2 -577 89 -51 31
-229 183 -264 226 -32 38 -93 183 -109 255 -14 64 -16 106 -11 220 13 284 58
402 212 560 68 70 107 101 160 127 74 37 173 72 246 88 62 13 310 4 394 -14z
m1685 -744 l0 -717 -103 1 c-64 1 -105 -3 -110 -10 -12 -16 0 872 12 913 18
58 -6 21 -39 -62 -36 -94 -67 -156 -86 -175 -8 -7 -14 -19 -14 -25 0 -7 -11
-29 -25 -49 -13 -19 -36 -67 -51 -104 -15 -38 -30 -73 -35 -79 -16 -22 -58
-138 -53 -147 3 -5 -1 -17 -9 -26 -9 -9 -19 -29 -22 -45 -4 -15 -11 -29 -15
-32 -4 -2 -22 30 -41 73 -18 42 -48 105 -66 138 -19 34 -47 103 -63 153 -16
50 -45 121 -64 159 -19 37 -49 106 -66 152 -32 84 -59 131 -46 80 3 -14 9
-221 13 -461 l6 -436 -90 -7 c-49 -4 -101 -13 -115 -20 l-24 -13 -2 221 c-2
122 0 449 4 729 l7 507 56 0 c32 0 64 -6 73 -12 27 -23 103 -139 180 -278 189
-339 219 -394 224 -417 4 -13 11 -22 18 -20 12 4 13 6 107 197 78 159 187 359
219 402 14 18 37 52 52 75 24 37 32 42 75 48 26 3 55 7 63 9 8 1 18 1 23 -1 4
-2 7 -327 7 -721z m716 683 c94 -46 165 -114 201 -190 l28 -60 0 -420 0 -420
-38 -77 c-21 -42 -54 -94 -72 -115 -67 -79 -221 -133 -337 -120 -53 7 -188 73
-232 114 -37 34 -105 128 -124 171 -13 32 -16 96 -16 467 -1 416 0 432 20 475
41 90 172 186 284 210 25 5 83 7 130 5 72 -4 96 -10 156 -40z m563 -522 c2
-451 5 -562 16 -579 20 -31 102 -83 144 -90 52 -10 140 22 166 61 20 30 20 44
19 598 l0 567 124 0 124 0 -7 -562 c-4 -310 -11 -579 -16 -599 -23 -91 -102
-185 -196 -232 -186 -95 -340 -66 -491 90 -40 43 -81 93 -90 113 -18 40 -19
82 -14 768 l2 422 108 0 108 0 3 -557z m1236 518 c36 -18 82 -52 109 -81 53
-57 115 -178 123 -241 l6 -42 -49 6 c-27 4 -82 10 -121 13 l-73 7 0 32 c0 25
-8 40 -35 63 -90 79 -229 63 -274 -32 -43 -87 3 -151 203 -286 161 -108 222
-162 280 -248 55 -84 70 -140 63 -240 -8 -117 -47 -188 -148 -267 -91 -72
-138 -89 -244 -90 -114 0 -155 19 -258 118 -88 86 -136 173 -144 264 l-5 59
116 -1 c100 0 115 -2 111 -16 -9 -28 15 -122 38 -147 12 -13 44 -35 71 -49 56
-28 105 -25 158 11 98 66 105 178 17 282 l-33 39 44 -40 43 -40 -34 43 c-22
28 -70 66 -140 108 -189 113 -290 198 -351 293 -25 41 -28 53 -28 136 0 66 6
108 20 151 66 191 340 291 535 195z m1015 -76 l0 -115 -187 1 c-104 0 -210 4
-238 9 -27 4 -51 6 -53 5 -2 -2 2 -14 10 -27 10 -17 12 -63 10 -179 l-2 -156
175 5 175 5 0 -50 c0 -28 3 -78 6 -112 l7 -61 -139 0 c-163 0 -210 -6 -219
-29 -3 -9 -9 -103 -12 -208 l-6 -193 231 0 232 0 0 -102 0 -103 -328 -3 c-222
-3 -331 -7 -341 -15 -11 -9 -13 102 -9 703 2 393 7 721 11 728 6 9 86 12 343
12 l334 0 0 -115z m-5563 -111 c-3 -3 -12 -4 -19 -1 -8 3 -5 6 6 6 11 1 17 -2
13 -5z m4483 -46 c10 -6 7 -7 -10 -2 -14 3 -32 11 -40 16 -10 6 -7 7 10 2 14
-3 32 -11 40 -16z m-4893 -360 c-3 -8 -6 -5 -6 6 -1 11 2 17 5 13 3 -3 4 -12
1 -19z m-367 -105 c1 -60 3 -300 6 -535 l6 -428 -43 0 c-41 0 -69 -7 -151 -36
l-36 -13 -7 40 c-4 22 -2 127 4 232 6 106 13 279 14 385 l2 192 -170 -1 c-93
0 -194 -4 -222 -8 l-53 -7 0 138 0 138 268 3 c147 1 293 3 325 5 l57 2 0 -107z
m1562 102 c9 -4 12 -18 10 -47 -3 -22 1 -140 7 -262 6 -121 12 -344 12 -494 2
-308 7 -290 -80 -312 -79 -20 -123 -49 -140 -92 -10 -25 -14 38 -15 277 -1 66
-2 246 -3 400 l-3 280 -222 -3 c-122 -1 -224 1 -228 5 -4 4 -5 61 -2 125 l5
118 316 3 c174 1 319 3 323 5 3 1 12 0 20 -3z m-2721 -41 c-9 -28 -9 -29 -10
-3 -1 14 2 29 6 32 11 12 13 2 4 -29z m1441 -926 l58 -57 1 -118 c0 -65 4
-183 8 -263 7 -144 8 -147 48 -230 74 -151 197 -277 358 -365 99 -54 184 -75
306 -75 186 0 273 29 689 233 358 175 602 292 690 332 52 23 154 71 225 105
459 220 579 277 740 350 99 45 234 111 299 147 l120 66 24 -29 c69 -85 75 -94
63 -108 -27 -32 -428 -240 -665 -346 -72 -32 -162 -74 -201 -93 -38 -19 -128
-60 -198 -91 -70 -31 -154 -69 -185 -85 -31 -17 -121 -60 -199 -96 -187 -86
-294 -136 -553 -260 -582 -278 -702 -314 -936 -281 -100 14 -136 25 -226 65
-132 60 -224 121 -322 212 -99 92 -155 183 -208 339 l-43 125 -2 325 -3 325
27 -35 c15 -19 53 -61 85 -92z"/>
<path d="M6088 5811 c72 -12 69 -27 -6 -23 -58 3 -74 0 -124 -25 -31 -16 -54
-25 -51 -19 3 6 -6 0 -21 -14 -17 -15 -24 -30 -20 -40 3 -8 5 -184 5 -390 l-2
-375 28 -27 c76 -71 180 -91 265 -50 84 41 83 34 86 478 l3 391 -27 32 c-35
42 -94 71 -141 70 l-38 -2 43 -6z"/>
<path d="M5986 5801 c-3 -4 6 -6 19 -3 14 2 25 6 25 8 0 8 -39 4 -44 -5z"/>
<path d="M7116 4825 c-11 -8 -15 -15 -9 -15 6 0 16 7 23 15 16 19 11 19 -14 0z"/>
</g>
</svg>
